# xmcd
#
# Track frame offsets:
#	150
#	13500
#	26915
#	39353
#	54216
#	64328
#	75318
#	85471
#	99558
#	113827
#	124823
#	136714
#	146987
#	157217
#	169118
#	180556
#	191734
#	204275
#	218409
#	229054
#	245986
#	255647
#	265880
#	279801
#	292593
#	304462
#	326374
#	342949
#
# Disc length: 4801 seconds
#
# Revision: 1
# Processed by: cddbd v1.5PL3 Copyright (c) Steve Scherf et al.
# Submitted via: audiograbber 1.83.01
#
DISCID=8f12bf1c
DTITLE=Jerry Lee Lewis - Mercury Smashes CD 07
DYEAR=1900
DGENRE=
TTITLE0=Remember Me (I'm The One Who Loves You)
TTITLE1=Shake, Rattle And Roll
TTITLE2=Love Inflation
TTITLE3=I Don't Want To Be Lonely Tonight
TTITLE4=Forever Forgiving
TTITLE5=A Little Peace And Harmony
TTITLE6=No One Knows Me
TTITLE7=When I Take My Vacation In Heaven
TTITLE8=I'm Still Jealous Of You
TTITLE9=You Ought To See My Mind
TTITLE10=Don't Boogie Woogie (When You Say Your Prayers Tonight)
TTITLE11=Thanks For Nothing
TTITLE12=Red Hot Memories (Ice Cold Beer)
TTITLE13=I Was Sorta Wonderin'
TTITLE14=Jerry's Place
TTITLE15=That Kind Of Fool
TTITLE16=Your Cheatin' Heart
TTITLE17=Crawdad Song
TTITLE18=The House Of Blue Lights
TTITLE19=Goodnight Irene
TTITLE20=A Damn Good Country Song
TTITLE21=A Damn Good Country Song (Different Vocal Approach)
TTITLE22=Lord What's Left For Me To Do
TTITLE23=Great Balls Of Fire
TTITLE24=The One Rose That's Left In My Heart
TTITLE25=I'm Knee Deep In Loving You
TTITLE26=I Can Help
TTITLE27=I Can Help
EXTD=
EXTT0=
EXTT1=
EXTT2=
EXTT3=
EXTT4=
EXTT5=
EXTT6=
EXTT7=
EXTT8=
EXTT9=
EXTT10=
EXTT11=
EXTT12=
EXTT13=
EXTT14=
EXTT15=
EXTT16=
EXTT17=
EXTT18=
EXTT19=
EXTT20=
EXTT21=
EXTT22=
EXTT23=
EXTT24=
EXTT25=
EXTT26=
EXTT27=
PLAYORDER=
